# Blender 4.5.4 LTS
# www.blender.org
mtllib pyramid.mtl
o Pyramid
v -1.000000 -1.000000 1.000000
v 0.000000 1.000000 -0.004515
v 0.000000 -1.000000 -1.000000
v 1.000000 -1.000000 1.000000
vn -0.8731 0.2173 -0.4365
vn 0.8731 0.2173 -0.4365
vn -0.0000 0.4488 0.8936
vn -0.0000 -1.0000 -0.0000
vt 0.375000 0.000000
vt 0.625000 0.250000
vt 0.375000 0.250000
vt 0.375000 0.500000
vt 0.625000 0.750000
vt 0.375000 0.750000
vt 0.625000 1.000000
vt 0.375000 1.000000
vt 0.125000 0.750000
s 0
f 1/1/1 2/2/1 3/3/1
f 3/4/2 2/5/2 4/6/2
f 4/6/3 2/7/3 1/8/3
f 3/4/4 4/6/4 1/9/4
